<?xml version="1.0" encoding="UTF-8"?>
<svg version="1.1" xmlns="http://www.w3.org/2000/svg" width="365" height="324">
<path d="M0 0 C120.45 0 240.9 0 365 0 C365 106.92 365 213.84 365 324 C244.55 324 124.1 324 0 324 C0 217.08 0 110.16 0 0 Z " fill="#000000" transform="translate(0,0)"/>
<path d="M0 0 C1.13187744 -0.01015137 2.26375488 -0.02030273 3.42993164 -0.03076172 C24.64600834 0.18819917 43.07705305 9.03943228 58.375 23.4375 C56.85946596 26.91525179 54.7976544 29.3932984 52.25 32.1875 C51.52554688 32.98671875 50.80109375 33.7859375 50.0546875 34.609375 C49.50039062 35.21265625 48.94609375 35.8159375 48.375 36.4375 C44.47173526 35.7087789 42.62478373 33.88074614 39.69140625 31.2578125 C23.98799402 18.91752565 7.86624135 16.15209379 -11.625 17.4375 C-16.00355957 18.21858861 -19.66221634 19.44055564 -23.625 21.4375 C-24.47707031 21.86160156 -25.32914063 22.28570312 -26.20703125 22.72265625 C-41.69022209 31.26100573 -50.74589608 43.66558029 -55.625 60.4375 C-60.26937836 77.85391883 -57.84267209 95.89510288 -49.32421875 111.6875 C-40.94481217 125.24865456 -29.93592687 134.28177572 -14.546875 138.70703125 C3.92547972 142.14759931 20.58707854 138.55194287 36.375 128.4375 C39.35334046 126.06302832 42.22420888 123.63250902 45.03515625 121.0625 C47.375 119.4375 47.375 119.4375 49.41796875 119.41015625 C52.08023227 120.80771175 53.66303381 122.6042058 55.625 124.875 C56.33140625 125.67808594 57.0378125 126.48117188 57.765625 127.30859375 C59.375 129.4375 59.375 129.4375 59.375 131.4375 C45.55898921 146.06394718 25.06482941 155.82515875 4.9765625 156.67578125 C-6.20249278 156.92305575 -15.98743695 155.88784312 -26.625 152.4375 C-27.55699219 152.13714844 -28.48898438 151.83679688 -29.44921875 151.52734375 C-45.62792456 145.66034054 -58.53018748 133.45207161 -66.625 118.4375 C-67.08390625 117.58929688 -67.5428125 116.74109375 -68.015625 115.8671875 C-78.60136197 94.50440506 -78.74667193 70.47229932 -71.4375 48.125 C-64.20940124 29.28879039 -48.91559638 14.09612561 -30.69921875 5.72265625 C-29.68472656 5.29855469 -28.67023438 4.87445313 -27.625 4.4375 C-26.66207031 4.02371094 -25.69914062 3.60992187 -24.70703125 3.18359375 C-16.52944567 0.26810672 -8.61877121 0.05500472 0 0 Z " fill="#F6F6F6" transform="translate(154.625,83.5625)"/>
<path d="M0 0 C1.28795471 0.01110306 2.57590942 0.02220612 3.90289307 0.03364563 C4.61548782 0.0329155 5.32808258 0.03218536 6.06227112 0.03143311 C8.41129406 0.03490914 10.75831938 0.07376594 13.10699463 0.11299133 C14.73794471 0.12231953 16.36890882 0.12943561 17.99987793 0.13442993 C22.28774862 0.15349956 26.57476931 0.20259912 30.86230469 0.25794983 C35.23932395 0.30914363 39.61648088 0.33194419 43.99371338 0.35713196 C52.5787819 0.41071902 61.16299703 0.49865369 69.74761963 0.60127258 C69.74761963 5.88127258 69.74761963 11.16127258 69.74761963 16.60127258 C40.70761963 16.60127258 11.66761963 16.60127258 -18.25238037 16.60127258 C-15.18028174 12.76114929 -12.74221612 10.19314118 -9.03363037 7.22627258 C-7.09445166 5.5948869 -7.09445166 5.5948869 -5.58825684 3.03518677 C-3.25238037 0.60127258 -3.25238037 0.60127258 0 0 Z " fill="#FEFEFE" transform="translate(232.25238037109375,216.3987274169922)"/>
<path d="M0 0 C28.71 0 57.42 0 87 0 C87 5.28 87 10.56 87 16 C77.78516984 16.22669138 68.57221572 16.40980912 59.35521889 16.51812172 C55.07445636 16.5701298 50.79571343 16.64055901 46.51611328 16.75439453 C42.37916892 16.86373609 38.24415556 16.92297915 34.10587692 16.94877243 C32.53407783 16.96713083 30.96237461 17.00298432 29.39140701 17.05730057 C17.0992759 17.46506813 17.0992759 17.46506813 11.91619873 13.84783936 C9.42215874 11.34460538 7.23947506 8.72867585 5 6 C4.08699127 5.2742276 3.17398254 4.5484552 2.23330688 3.8006897 C1.49631561 3.2064621 0.75932434 2.6122345 0 2 C0 1.34 0 0.68 0 0 Z " fill="#F6F6F6" transform="translate(214,82)"/>
<path d="M0 0 C1.6874269 0.00015917 3.37485866 0.00585622 5.06225586 0.01586914 C6.39189613 0.01799156 6.39189613 0.01799156 7.74839783 0.02015686 C10.59133215 0.02577324 13.43418892 0.03832848 16.27709961 0.05102539 C18.19962452 0.05603828 20.12215065 0.06060155 22.04467773 0.06469727 C26.7680151 0.07574798 31.49129419 0.09302356 36.21459961 0.11352539 C36.21459961 5.39352539 36.21459961 10.67352539 36.21459961 16.11352539 C22.68459961 16.11352539 9.15459961 16.11352539 -4.78540039 16.11352539 C-4.78540039 0.14351572 -4.78540039 0.14351572 0 0 Z " fill="#EBEBEB" transform="translate(254.785400390625,153.886474609375)"/>
<path d="M0 0 C1.28795471 0.01110306 2.57590942 0.02220612 3.90289307 0.03364563 C4.61548782 0.0329155 5.32808258 0.03218536 6.06227112 0.03143311 C8.41129406 0.03490914 10.75831938 0.07376594 13.10699463 0.11299133 C14.73794471 0.12231953 16.36890882 0.12943561 17.99987793 0.13442993 C22.28774862 0.15349956 26.57476931 0.20259912 30.86230469 0.25794983 C35.23932395 0.30914363 39.61648088 0.33194419 43.99371338 0.35713196 C52.5787819 0.41071902 61.16299703 0.49865369 69.74761963 0.60127258 C69.74761963 5.88127258 69.74761963 11.16127258 69.74761963 16.60127258 C69.41761963 16.60127258 69.08761963 16.60127258 68.74761963 16.60127258 C68.74761963 11.98127258 68.74761963 7.36127258 68.74761963 2.60127258 C59.71406458 2.43738193 50.68448667 2.33012912 41.64942646 2.31886578 C37.45257981 2.31144703 33.25881239 2.28052045 29.06280518 2.1933136 C8.56899456 0.73742362 8.56899456 0.73742362 -9.37904358 8.34390259 C-11.7146891 10.95895697 -13.53759454 13.54009002 -15.25238037 16.60127258 C-16.24238037 16.27127258 -17.23238037 15.94127258 -18.25238037 15.60127258 C-17.50472412 14.9374054 -16.75706787 14.27353821 -15.98675537 13.58955383 C-14.99178053 12.6978311 -13.99699914 11.80589247 -13.00238037 10.91377258 C-11.5405835 9.6085968 -11.5405835 9.6085968 -10.04925537 8.27705383 C-7.2272725 5.77786 -7.2272725 5.77786 -5.52478027 2.96951294 C-3.25238037 0.60127258 -3.25238037 0.60127258 0 0 Z " fill="#B3B3B3" transform="translate(232.25238037109375,216.3987274169922)"/>
<path d="M0 0 C0.66 0.33 1.32 0.66 2 1 C-3.61 6.61 -9.22 12.22 -15 18 C-15 13.07254925 -11.31913617 10.39978807 -8 7 C-5.39491779 4.58973264 -2.72918126 2.2684104 0 0 Z " fill="#2F2F2F" transform="translate(122,109)"/>
<path d="M0 0 C0.99 0.33 1.98 0.66 3 1 C-1.29 5.29 -5.58 9.58 -10 14 C-10.99 13.67 -11.98 13.34 -13 13 C-12.22914063 12.31292969 -11.45828125 11.62585938 -10.6640625 10.91796875 C-9.65088582 10.00798599 -8.63787357 9.09782013 -7.625 8.1875 C-7.11710938 7.73568359 -6.60921875 7.28386719 -6.0859375 6.81835938 C-3.67827204 4.64829248 -1.80938139 2.71407209 0 0 Z " fill="#D6D6D6" transform="translate(227,219)"/>
<path d="M0 0 C0.66 0.99 1.32 1.98 2 3 C0.35 4.65 -1.3 6.3 -3 8 C-3.99 7.67 -4.98 7.34 -6 7 C-4.02 4.69 -2.04 2.38 0 0 Z " fill="#323232" transform="translate(213,107)"/>
</svg>
